<svg width="32" height="32" viewBox="0 0 32 32" fill="none" xmlns="http://www.w3.org/2000/svg">
  <rect width="32" height="32" rx="6" fill="#0a0a0a"/>
  <!-- Candle 1 - Green -->
  <rect x="5" y="12" width="1" height="6" fill="#34D399"/>
  <rect x="3" y="14" width="5" height="10" rx="1" fill="url(#green-gradient)"/>
  <rect x="5" y="24" width="1" height="3" fill="#34D399"/>
  <!-- Candle 2 - Red -->
  <rect x="11" y="8" width="1" height="4" fill="#F87171"/>
  <rect x="9" y="10" width="5" height="12" rx="1" fill="url(#red-gradient)"/>
  <rect x="11" y="22" width="1" height="3" fill="#F87171"/>
  <!-- Candle 3 - Gold (main) -->
  <rect x="17" y="5" width="1" height="3" fill="#FBBF24"/>
  <rect x="15" y="6" width="5" height="14" rx="1" fill="url(#gold-gradient)"/>
  <rect x="17" y="20" width="1" height="2" fill="#FBBF24"/>
  <!-- Candle 4 - Green -->
  <rect x="23" y="10" width="1" height="5" fill="#34D399"/>
  <rect x="21" y="12" width="5" height="9" rx="1" fill="url(#green-gradient)"/>
  <rect x="23" y="21" width="1" height="4" fill="#34D399"/>
  <defs>
    <linearGradient id="green-gradient" x1="0" y1="0" x2="0" y2="1">
      <stop offset="0%" stop-color="#34D399"/>
      <stop offset="100%" stop-color="#10B981"/>
    </linearGradient>
    <linearGradient id="red-gradient" x1="0" y1="0" x2="0" y2="1">
      <stop offset="0%" stop-color="#F87171"/>
      <stop offset="100%" stop-color="#EF4444"/>
    </linearGradient>
    <linearGradient id="gold-gradient" x1="0" y1="0" x2="0" y2="1">
      <stop offset="0%" stop-color="#FDE047"/>
      <stop offset="100%" stop-color="#F59E0B"/>
    </linearGradient>
  </defs>
</svg>
